<?xml version="1.0" encoding="UTF-8"?>
<svg version="1.1" xmlns="http://www.w3.org/2000/svg" width="500" height="500">
<path d="M0 0 C1.70586575 1.62652316 3.3777546 3.29006566 5 5 C5.825 5.825 6.65 6.65 7.5 7.5 C8.325 8.325 9.15 9.15 10 10 C10.845625 10.825 11.69125 11.65 12.5625 12.5 C19 19.1025641 19 19.1025641 19 22 C19.66 22 20.32 22 21 22 C35.18144012 41.82543896 38.78278552 66.76837534 35.22509766 90.4777832 C33.47922764 100.25051585 30.26534881 111.15975477 24 119 C23.38125 120.11375 22.7625 121.2275 22.125 122.375 C20.10113363 125.97903896 17.81217898 128.9658069 15 132 C14.34 132 13.68 132 13 132 C12.90589844 132.59296875 12.81179688 133.1859375 12.71484375 133.796875 C11.84054781 136.49142641 10.73279682 137.46322756 8.5625 139.25 C7.94503906 139.77078125 7.32757813 140.2915625 6.69140625 140.828125 C5 142 5 142 3 142 C3 142.66 3 143.32 3 144 C-15.54233199 158.43243366 -34.97746308 163.03192507 -58 163 C-59.2684375 163.01160156 -60.536875 163.02320313 -61.84375 163.03515625 C-73.40098091 162.6976203 -86.26582283 159.22664404 -96.125 153.0625 C-100.72087141 150.27630895 -103.88906214 150.89275234 -109 152 C-110.28003906 152.22558594 -111.56007812 152.45117188 -112.87890625 152.68359375 C-120.83300996 154.08223598 -120.83300996 154.08223598 -128.65234375 156.08984375 C-133.19389039 157.3245933 -137.34307831 157.1275869 -142 157 C-140.57349651 150.26717919 -138.84690944 143.67342367 -136.9375 137.0625 C-136.5343457 135.64614258 -136.5343457 135.64614258 -136.12304688 134.20117188 C-134.13147321 127.26294643 -134.13147321 127.26294643 -133 125 C-132.43319192 119.10519599 -133.63136308 116.73430053 -137 112 C-147.44109118 92.96230062 -149.44751777 70.31065619 -144.75 49.375 C-144.54552246 48.45130615 -144.34104492 47.5276123 -144.13037109 46.57592773 C-142.80182092 41.06942368 -141.00045018 36.79705374 -138 32 C-137.2884375 30.2984375 -137.2884375 30.2984375 -136.5625 28.5625 C-134.77414873 24.48505911 -132.76454451 20.51270507 -130 17 C-129.34 17 -128.68 17 -128 17 C-127.7525 16.278125 -127.505 15.55625 -127.25 14.8125 C-124.58711211 8.82100226 -120.26278961 5.48086511 -115.12109375 1.6484375 C-113.03169356 0.10393678 -113.03169356 0.10393678 -111.51953125 -1.52734375 C-108.89120501 -4.07459052 -105.67448356 -5.69023985 -102.52734375 -7.5234375 C-100.59268165 -8.65373468 -98.69367851 -9.84526684 -96.8125 -11.0625 C-67.49300195 -27.63741814 -25.21272964 -20.89054741 0 0 Z M-77 26 C-80.46888529 31.87864314 -82.27966262 38.22003312 -81 45 C-78.12569334 54.10621047 -73.90127234 59.11689862 -65.8125 63.875 C-57.45671094 66.34064267 -49.84325295 65.6199629 -42 62 C-42 61.34 -42 60.68 -42 60 C-41.40574219 59.75121094 -40.81148437 59.50242188 -40.19921875 59.24609375 C-36.11869873 56.93404066 -34.00051409 53.14875846 -32 49 C-29.92439885 40.52962769 -31.00076601 33.16842647 -35.3125 25.6875 C-37.45334774 22.46044042 -39.4515067 20.68086525 -43 19 C-43.99 18.34 -44.98 17.68 -46 17 C-58.08093761 13.86939158 -68.744443 16.45507185 -77 26 Z M-90 75 C-91.71422413 78.27682556 -91.71422413 78.27682556 -93 82 C-93.3403125 82.8971875 -93.680625 83.794375 -94.03125 84.71875 C-96.65400877 91.9875386 -99.31583661 99.91058599 -97.3203125 107.62890625 C-95.6175785 110.68677471 -94.14502992 111.48127416 -91 113 C-87.70557062 113.45201235 -87.70557062 113.45201235 -84.0859375 113.38818359 C-83.41048889 113.39344055 -82.73504028 113.39869751 -82.03912354 113.40411377 C-79.8175103 113.4172637 -77.59661989 113.40859409 -75.375 113.3984375 C-73.82470564 113.40045969 -72.27441221 113.40337234 -70.72412109 113.40713501 C-67.47939981 113.41155156 -64.23492675 113.40514907 -60.99023438 113.39111328 C-56.83735392 113.37402156 -52.68505517 113.38386637 -48.53219604 113.40183067 C-45.33223105 113.41268674 -42.13240328 113.40921386 -38.93243408 113.4014473 C-37.40146821 113.39945032 -35.87048975 113.4018869 -34.33953857 113.40888596 C-32.19737893 113.41653076 -30.05615286 113.4048553 -27.9140625 113.38818359 C-26.6967041 113.38579681 -25.4793457 113.38341003 -24.22509766 113.38095093 C-20.67827732 112.96199788 -18.82850018 112.14534747 -16 110 C-12.66705113 105.00057669 -13.57740052 100.15381666 -14.6875 94.49609375 C-17.07933694 84.77925619 -20.0236137 73.6216184 -28 67 C-32.75491163 66.36601178 -35.55026745 66.54962582 -39.6875 68.9375 C-48.85791122 73.96066872 -61.2169976 72.42104605 -71 70 C-72.68343868 69.02850014 -74.35256059 68.03136858 -76 67 C-83.87046555 65.62579173 -86.2294099 68.30333682 -90 75 Z " fill="#FD2A52" transform="translate(307,163)"/>
<path d="M0 0 C0.99386719 0.3403125 1.98773438 0.680625 3.01171875 1.03125 C12.67726537 4.64221106 21.7833395 9.89994146 30.1953125 15.8359375 C32.10334712 17.17249685 32.10334712 17.17249685 35 18 C35 18.66 35 19.32 35 20 C35.804375 20.37125 35.804375 20.37125 36.625 20.75 C39.5823982 22.30652537 42.29724051 24.03435673 45 26 C45 26.66 45 27.32 45 28 C45.70125 28.185625 46.4025 28.37125 47.125 28.5625 C50.49773127 30.24886563 51.99221829 32.16214787 54.3125 35.0625 C56.7191267 37.82566399 59.50508149 40.04310314 62.36328125 42.32421875 C64.22912724 44.23459567 64.37730792 45.47197661 65 48 C65.99 48.33 66.98 48.66 68 49 C69.82421875 50.92578125 69.82421875 50.92578125 71.6875 53.3125 C72.62142578 54.48232422 72.62142578 54.48232422 73.57421875 55.67578125 C75 58 75 58 75 62 C67.31729233 61.35977436 61.58565358 59.15158465 56.5 53.1875 C55.65308594 52.14722656 55.65308594 52.14722656 54.7890625 51.0859375 C52.37808202 48.27488165 49.64797048 45.96745972 46.828125 43.578125 C45 42 45 42 42.625 39.5625 C37.95332456 35.00205493 32.85762178 30.64313252 27.1875 27.3828125 C26.465625 26.92648438 25.74375 26.47015625 25 26 C25 25.34 25 24.68 25 24 C24.0925 23.731875 23.185 23.46375 22.25 23.1875 C19.19764596 22.07221679 17.5427563 20.92633053 15 19 C13.32920531 18.24650436 11.65505934 17.49852938 9.95703125 16.80859375 C7.93878694 15.97470837 5.97699491 15.05206541 4 14.125 C-2.48539706 11.23645285 -9.24210583 9.14239624 -16 7 C-16.88171875 6.69835937 -17.7634375 6.39671875 -18.671875 6.0859375 C-31.85047137 1.93090234 -47.27891732 1.3025748 -61 2 C-61.77359863 2.03577148 -62.54719727 2.07154297 -63.34423828 2.10839844 C-83.44197661 3.14370212 -103.59561908 7.51781603 -121 18 C-123.33333333 19 -125.66666667 20 -128 21 C-128.928125 21.556875 -129.85625 22.11375 -130.8125 22.6875 C-133 24 -133 24 -135 24 C-135 24.66 -135 25.32 -135 26 C-137.01307084 27.52025676 -139.02090378 28.92882803 -141.125 30.3125 C-147.1746747 34.32964824 -152.86218294 38.38227166 -157.5625 44 C-160.25027196 47.14853287 -163.03169943 50.10981261 -166 53 C-167.0828125 54.2684375 -167.0828125 54.2684375 -168.1875 55.5625 C-173.0204406 59.75104852 -178.6079476 62 -185 62 C-184.45994624 57.83492783 -183.16934899 55.45554561 -180.5625 52.1875 C-179.94503906 51.39730469 -179.32757813 50.60710937 -178.69140625 49.79296875 C-178.13324219 49.20128906 -177.57507813 48.60960937 -177 48 C-176.34 48 -175.68 48 -175 48 C-174.938125 47.443125 -174.87625 46.88625 -174.8125 46.3125 C-173.6523629 43.01057134 -171.54440205 41.37092009 -169 39 C-168.21625 38.195625 -167.4325 37.39125 -166.625 36.5625 C-157.85365854 28 -157.85365854 28 -155 28 C-154.67 27.01 -154.34 26.02 -154 25 C-152.44140625 23.61328125 -152.44140625 23.61328125 -150.5625 22.3125 C-149.94503906 21.87550781 -149.32757813 21.43851563 -148.69140625 20.98828125 C-147 20 -147 20 -145 20 C-145 19.34 -145 18.68 -145 18 C-142.85546875 16.5859375 -142.85546875 16.5859375 -140 15 C-139.08863281 14.45601562 -138.17726562 13.91203125 -137.23828125 13.3515625 C-95.22285201 -11.44258934 -46.19854833 -15.95281437 0 0 Z " fill="#535353" transform="translate(305,92)"/>
<path d="M0 0 C6.10256221 3.60555052 8.69926754 7.20545961 10.69140625 14.0078125 C10.95883179 16.86395264 10.95883179 16.86395264 10.98193359 19.85449219 C10.9946933 20.9829657 11.007453 22.11143921 11.02059937 23.27410889 C11.02282501 24.48044983 11.02505066 25.68679077 11.02734375 26.9296875 C11.03400055 28.18485168 11.04065735 29.44001587 11.04751587 30.73321533 C11.05762845 33.38609018 11.06320029 36.03855503 11.06201172 38.69140625 C11.06180908 42.06481639 11.08906762 45.43737891 11.12355614 48.81058884 C11.151358 52.05858841 11.1499794 55.30658528 11.15234375 58.5546875 C11.16671478 59.75293152 11.18108582 60.95117554 11.19589233 62.18572998 C11.15835721 69.14637598 10.76933431 76.09306874 6.69140625 82.0078125 C4.55258179 82.77166748 4.55258179 82.77166748 2.69140625 83.0078125 C2.69140625 83.6678125 2.69140625 84.3278125 2.69140625 85.0078125 C-2.10543669 87.56612873 -7.01116536 87.5769577 -12.30859375 87.0078125 C-15.12109375 85.7578125 -15.12109375 85.7578125 -17.30859375 84.0078125 C-18.19546875 83.4096875 -19.08234375 82.8115625 -19.99609375 82.1953125 C-23.40109465 78.9743657 -24.16781536 75.59836898 -24.57601929 70.98635864 C-24.58364288 69.92238861 -24.59126648 68.85841858 -24.59912109 67.76220703 C-24.6118808 66.54719513 -24.6246405 65.33218323 -24.63778687 64.08035278 C-24.64001251 62.78024261 -24.64223816 61.48013245 -24.64453125 60.140625 C-24.65096747 58.77830875 -24.65769643 57.41599385 -24.66470337 56.05368042 C-24.67664504 53.20421141 -24.68038739 50.35486335 -24.67919922 47.50537109 C-24.67899613 43.87171766 -24.70630047 40.2388472 -24.74074364 36.6053791 C-24.76308794 33.7930451 -24.76703449 30.98089737 -24.76597977 28.16848373 C-24.76945648 26.18331854 -24.79106918 24.19821149 -24.81307983 22.21316528 C-24.77292083 14.24229282 -24.25729785 8.14619235 -18.51953125 2.1328125 C-12.57818286 -1.50784353 -6.60909573 -2.84045739 0 0 Z " fill="#4A4A4A" transform="translate(392.30859375,182.9921875)"/>
<path d="M0 0 C4.78032407 2.14444444 7.27064752 4.59991109 9.77734375 9.3125 C10.8471346 12.52187255 10.91701469 14.85869333 10.93847656 18.23339844 C10.94808411 19.45186462 10.95769165 20.67033081 10.96759033 21.92572021 C10.97184021 23.24445129 10.97609009 24.56318237 10.98046875 25.921875 C10.98622414 27.29087322 10.99198182 28.65987143 10.9977417 30.02886963 C11.00824413 32.90043512 11.01409126 35.77197269 11.01757812 38.64355469 C11.02305126 42.30974268 11.04705668 45.97555711 11.07555008 49.64162827 C11.09424719 52.47105966 11.09938587 55.30040251 11.100914 58.12989044 C11.10538531 60.13446868 11.124 62.13899937 11.1428833 64.14349365 C11.1095175 77.8304125 11.1095175 77.8304125 5.8671875 83.30859375 C0.12358238 87.15503711 -4.34117554 88.36750053 -11.22265625 87.3125 C-14.34765625 86.3125 -14.34765625 86.3125 -16.22265625 85.3125 C-16.22265625 84.6525 -16.22265625 83.9925 -16.22265625 83.3125 C-16.82078125 83.085625 -17.41890625 82.85875 -18.03515625 82.625 C-20.86541957 80.92684201 -21.78266473 79.26105407 -23.22265625 76.3125 C-24.10865406 72.72115326 -24.36235186 69.34774266 -24.3996582 65.65527344 C-24.41249344 64.54351746 -24.42532867 63.43176147 -24.43855286 62.28631592 C-24.44593979 61.09355042 -24.45332672 59.90078491 -24.4609375 58.671875 C-24.46900925 57.43512024 -24.47708099 56.19836548 -24.48539734 54.9241333 C-24.49921607 52.30832309 -24.50994809 49.69249502 -24.51782227 47.07666016 C-24.52667548 44.40729438 -24.54980235 41.73917218 -24.5793457 39.06982422 C-24.62208674 35.20784886 -24.63820093 31.34655773 -24.6484375 27.484375 C-24.66594559 26.29970642 -24.68345367 25.11503784 -24.70149231 23.89447021 C-24.68338855 16.93676878 -24.00311877 11.28262472 -20.22265625 5.3125 C-14.34794831 -0.41534024 -7.96142193 -2.46258394 0 0 Z " fill="#4B4B4B" transform="translate(121.22265625,182.6875)"/>
<path d="M0 0 C-0.57987906 3.36329858 -1.57924265 4.6723487 -4 7 C-4.42152344 7.73734375 -4.84304688 8.4746875 -5.27734375 9.234375 C-7.26366563 12.42329992 -9.6283929 15.08571967 -12.1875 17.8125 C-12.92214478 18.60188965 -12.92214478 18.60188965 -13.67163086 19.40722656 C-15.10820753 20.94414975 -16.55251019 22.47335868 -18 24 C-18.70898438 24.75152344 -19.41796875 25.50304687 -20.1484375 26.27734375 C-33.38924025 39.9234772 -33.38924025 39.9234772 -40 41 C-40 41.66 -40 42.32 -40 43 C-53.79642511 53.81499426 -79.16177108 67 -97 67 C-97 68.32 -97 69.64 -97 71 C-99.68539415 71.53466228 -102.37232628 72.05294683 -105.0625 72.5625 C-105.81466797 72.71396484 -106.56683594 72.86542969 -107.34179688 73.02148438 C-112.97689054 74.0704412 -117.95734483 74.28111797 -123.375 72 C-126.03288592 68.7287558 -126.05072681 65.11611836 -126 61 C-125.4375 58.125 -125.4375 58.125 -124 56 C-119.57317332 53.39676162 -115.49639524 52.2759355 -110.4375 51.5 C-109.15746094 51.2834375 -107.87742187 51.066875 -106.55859375 50.84375 C-101.93882898 51.04659368 -101.09429336 52.75762989 -98 56 C-95.37357535 56.17689403 -95.37357535 56.17689403 -92.6875 55.1875 C-91.64207031 54.86910156 -90.59664063 54.55070312 -89.51953125 54.22265625 C-88.35808594 53.81917969 -87.19664062 53.41570312 -86 53 C-85.35466309 52.77812012 -84.70932617 52.55624023 -84.04443359 52.32763672 C-71.72111752 48.04422611 -60.67838654 42.5860933 -49.6875 35.57421875 C-47 34 -47 34 -45 34 C-44.67 33.01 -44.34 32.02 -44 31 C-42.34800726 29.97594055 -40.67811991 28.98065863 -39 28 C-37.01234489 26.30295377 -35.09072635 24.59802319 -33.1875 22.8125 C-32.66341553 22.3263623 -32.13933105 21.84022461 -31.59936523 21.33935547 C-27.29669724 17.32775613 -23.11148523 13.20732405 -19 9 C-12.78509446 2.64384661 -9.0992665 -0.25997904 0 0 Z " fill="#545454" transform="translate(380,314)"/>
<path d="M0 0 C1.52910388 -0.00323172 3.05820748 -0.00659703 4.58731079 -0.01008606 C7.77224439 -0.01601675 10.95715113 -0.01793248 14.14208984 -0.01733398 C17.34722586 -0.01725312 20.55221775 -0.02414336 23.75732422 -0.0378418 C48.18207925 -0.14062859 72.4091598 0.41535183 96.6015625 4.16796875 C97.1640625 6.10546875 97.1640625 6.10546875 97.6015625 8.16796875 C95.21486335 10.5546679 89.88297605 10.23128605 86.6640625 10.66796875 C85.77009766 10.79816406 84.87613281 10.92835938 83.95507812 11.0625 C65.0369947 13.65832849 45.92700248 13.35582391 26.87451172 13.35327148 C23.79372228 13.35319065 20.7130829 13.36007865 17.63232422 13.3737793 C-7.51063089 13.4838254 -32.46838957 12.80682668 -57.3984375 9.16796875 C-57.9609375 7.23046875 -57.9609375 7.23046875 -58.3984375 5.16796875 C-55.80722555 2.5767568 -49.33526245 3.07774477 -45.8359375 2.66796875 C-44.25522461 2.47267578 -44.25522461 2.47267578 -42.64257812 2.2734375 C-28.43540485 0.58190394 -14.29306641 0.00730808 0 0 Z " fill="#E9E9E9" transform="translate(230.3984375,430.83203125)"/>
<path d="M0 0 C10.26772754 15.4015913 10.0199174 37.83341916 6.875 55.4375 C4.88886985 64.62098751 1.9292327 74.58035908 -4 82 C-4.61875 83.11375 -5.2375 84.2275 -5.875 85.375 C-7.89886637 88.97903896 -10.18782102 91.9658069 -13 95 C-13.66 95 -14.32 95 -15 95 C-15.14115234 95.88945312 -15.14115234 95.88945312 -15.28515625 96.796875 C-16.15945219 99.49142641 -17.26720318 100.46322756 -19.4375 102.25 C-20.05496094 102.77078125 -20.67242187 103.2915625 -21.30859375 103.828125 C-23 105 -23 105 -25 105 C-25 105.66 -25 106.32 -25 107 C-46.36729193 123.63124269 -70.53430117 127.84780411 -96.9921875 125.45703125 C-101.49083248 124.77347091 -105.73259619 123.5634037 -110 122 C-107 120 -107 120 -104.98535156 120.23339844 C-104.2115918 120.4399707 -103.43783203 120.64654297 -102.640625 120.859375 C-96.3248435 122.28374632 -90.20196891 122.30116657 -83.75 122.25 C-81.96517212 122.24311157 -81.96517212 122.24311157 -80.14428711 122.23608398 C-71.94858101 122.1514535 -64.03682366 121.71769866 -56 120 C-54.89978516 119.84337891 -54.89978516 119.84337891 -53.77734375 119.68359375 C-51.30933543 118.73435978 -51.12151649 117.33031053 -50 115 C-48.15234375 113.7265625 -48.15234375 113.7265625 -45.9375 112.625 C-41.78105071 110.46311092 -37.97328266 108.02198913 -34.140625 105.33203125 C-31.83936752 103.90004439 -29.53863765 102.9364555 -27 102 C-27 101.34 -27 100.68 -27 100 C-26.34 100 -25.68 100 -25 100 C-25 99.34 -25 98.68 -25 98 C-23.37897032 96.28891311 -21.70496537 94.62746694 -20 93 C-19.278125 92.236875 -18.55625 91.47375 -17.8125 90.6875 C-16 89 -16 89 -14 89 C-14 87.68 -14 86.36 -14 85 C-12.5625 83.375 -12.5625 83.375 -11 82 C-10.67 81.34 -10.34 80.68 -10 80 C-9.34 80 -8.68 80 -8 80 C-7.773125 78.845 -7.54625 77.69 -7.3125 76.5 C-6.52763612 73.28205808 -5.48911486 71.05601224 -3.5625 68.375 C-0.35628097 63.64606337 0.40073749 58.52157666 1.421875 52.9765625 C2 50 2 50 3 48 C3.88856297 35.91150464 3.49483363 23.87898952 0.66796875 12.09375 C-0.22602544 7.95314532 -0.22189727 4.2160482 0 0 Z " fill="#D72243" transform="translate(335,200)"/>
<path d="M0 0 C1 1 1 1 1.0625 3.5625 C1.041875 4.366875 1.02125 5.17125 1 6 C1.66 6 2.32 6 3 6 C5 9 5 9 6 12 C7.32 11.67 8.64 11.34 10 11 C10.495 11.99 10.495 11.99 11 13 C8.69 13.66 6.38 14.32 4 15 C4 16.32 4 17.64 4 19 C1.31460585 19.53466228 -1.37232628 20.05294683 -4.0625 20.5625 C-4.81466797 20.71396484 -5.56683594 20.86542969 -6.34179688 21.02148438 C-11.97689054 22.0704412 -16.95734483 22.28111797 -22.375 20 C-25.03288592 16.7287558 -25.05072681 13.11611836 -25 9 C-24.29886254 5.41640855 -23.59632495 4.42370457 -20.625 2.3125 C-14.04732163 -0.0690732 -6.88577289 -1.91476038 0 0 Z " fill="#4F4F4F" transform="translate(279,366)"/>
<path d="M0 0 C0.93423645 3.01031744 1.04449911 3.86650268 0 7 C-1.65 7 -3.3 7 -5 7 C-5 7.99 -5 8.98 -5 10 C-6.82260298 12.16976546 -8.60811001 13.40540668 -11 15 C-8.69 15 -6.38 15 -4 15 C-4 14.01 -4 13.02 -4 12 C0.28862337 10.62764052 4.80092136 10.02025485 9.0078125 11.89453125 C10.708299 12.86869659 12.35915221 13.92842593 14 15 C13.67 15.99 13.34 16.98 13 18 C12.34 17.34 11.68 16.68 11 16 C7.26301297 13.50867531 4.32011706 13.16671899 0 14 C-1.86418897 14.85471466 -1.86418897 14.85471466 -3.6875 15.9375 C-12.85791122 20.96066872 -25.2169976 19.42104605 -35 17 C-36.6942325 16.04744868 -38.36696344 15.05402532 -40 14 C-42.69254991 13.29329272 -42.69254991 13.29329272 -45 13 C-44.01 12.34 -43.02 11.68 -42 11 C-42.33 10.01 -42.66 9.02 -43 8 C-43.66 7.67 -44.32 7.34 -45 7 C-44.360625 6.38125 -43.72125 5.7625 -43.0625 5.125 C-40.96116416 3.17402388 -40.96116416 3.17402388 -40 1 C-39.57589844 1.39832031 -39.15179688 1.79664063 -38.71484375 2.20703125 C-31.77375125 8.47689722 -26.09960296 10.33671221 -16.76953125 10.30078125 C-13.98366139 9.99822557 -12.44623768 9.27123325 -10 8 C-8.68 8 -7.36 8 -6 8 C-6 7.34 -6 6.68 -6 6 C-4.37550757 4.29220027 -2.70779973 2.62449243 -1 1 C-0.67 0.67 -0.34 0.34 0 0 Z " fill="#D93C5D" transform="translate(271,217)"/>
<path d="M0 0 C0.66 0.33 1.32 0.66 2 1 C1.34 3.31 0.68 5.62 0 8 C1.32 8.66 2.64 9.32 4 10 C4 9.01 4 8.02 4 7 C5.65 6.34 7.3 5.68 9 5 C7.81259857 9.89803088 4.85951109 12.04045138 1.13671875 15.1015625 C-0.98883574 16.99008075 -2.62615459 18.95263341 -4.375 21.1875 C-8.10639272 25.60512586 -12.44520536 27.58571393 -18 29 C-19.32 29 -20.64 29 -22 29 C-21.45994624 24.83492783 -20.16934899 22.45554561 -17.5625 19.1875 C-16.94503906 18.39730469 -16.32757813 17.60710937 -15.69140625 16.79296875 C-15.13324219 16.20128906 -14.57507813 15.60960937 -14 15 C-13.34 15 -12.68 15 -12 15 C-11.938125 14.443125 -11.87625 13.88625 -11.8125 13.3125 C-10.6523629 10.01057134 -8.54440205 8.37092009 -6 6 C-5.0925 5.0925 -4.185 4.185 -3.25 3.25 C-2.16666667 2.16666667 -1.08333333 1.08333333 0 0 Z " fill="#5C5C5C" transform="translate(142,125)"/>
<path d="M0 0 C-0.57987906 3.36329858 -1.57924265 4.6723487 -4 7 C-4.42023438 7.73605469 -4.84046875 8.47210938 -5.2734375 9.23046875 C-7.27718483 12.44462454 -9.66991431 15.12608246 -12.25 17.875 C-12.73509033 18.39803711 -13.22018066 18.92107422 -13.7199707 19.45996094 C-17.39053216 23.39910006 -21.15000747 27.23556286 -25 31 C-25.33 30.01 -25.66 29.02 -26 28 C-25.38125 27.7525 -24.7625 27.505 -24.125 27.25 C-21.5927804 25.76045906 -21.19281342 24.62418952 -20 22 C-19 21 -18 20 -17 19 C-16.67 18.01 -16.34 17.02 -16 16 C-17.67828408 15.03375833 -17.67828408 15.03375833 -20 15 C-22.04119788 16.61594832 -24.04072937 18.2856382 -26 20 C-28.1875 20.6640625 -28.1875 20.6640625 -30 21 C-28.59418609 19.35416908 -27.18698965 17.70950208 -25.7734375 16.0703125 C-24.59991782 14.70034459 -23.4381874 13.3201811 -22.2890625 11.9296875 C-18.06538909 6.90332503 -13.83776712 2.1878803 -7.375 0.1875 C-4.9034096 -0.00762556 -2.47818494 -0.07080528 0 0 Z " fill="#565656" transform="translate(380,314)"/>
<path d="M0 0 C0.66 0.33 1.32 0.66 2 1 C1.39542969 1.83144531 0.79085937 2.66289062 0.16796875 3.51953125 C-2.15197232 7.00915614 -3.49060352 10.69191428 -4.6875 14.6875 C-4.90027588 15.38721924 -5.11305176 16.08693848 -5.33227539 16.80786133 C-8.28003322 26.91926187 -8.75264479 33.49471043 -4 43 C19.76 43 43.52 43 68 43 C68 43.66 68 44.32 68 45 C66.82608955 45.0154612 66.82608955 45.0154612 65.62846375 45.03123474 C58.25653451 45.12917403 50.88468977 45.2316834 43.51289654 45.33933926 C39.72290121 45.39452584 35.93289811 45.447939 32.14282227 45.49731445 C28.48584602 45.54502094 24.828963 45.59736599 21.17209816 45.65294075 C19.7762668 45.67333583 18.3804099 45.69205361 16.98453331 45.70907402 C15.03088898 45.73318077 13.07732803 45.76378046 11.1237793 45.79467773 C10.0112529 45.81022202 8.8987265 45.8257663 7.75248718 45.84178162 C4.90974714 45.88493745 4.90974714 45.88493745 2 47 C-0.73812607 46.54451823 -3.3201176 45.74685247 -6 45 C-6.33 43.68 -6.66 42.36 -7 41 C-7.66 41 -8.32 41 -9 41 C-10.09995958 37.70012125 -10.16747591 35.15967713 -10.1875 31.6875 C-10.20167969 30.57761719 -10.21585938 29.46773438 -10.23046875 28.32421875 C-9.9923334 24.88941909 -9.13659855 22.23220212 -8 19 C-7.60341133 15.16182832 -7.7711411 11.6865767 -9 8 C-8.34 7.34 -7.68 6.68 -7 6 C-6.01 6.33 -5.02 6.66 -4 7 C-4 6.34 -4 5.68 -4 5 C-3.34 5 -2.68 5 -2 5 C-2 3.68 -2 2.36 -2 1 C-1.34 0.67 -0.68 0.34 0 0 Z " fill="#DA3559" transform="translate(218,234)"/>
<path d="M0 0 C1.65 0.33 3.3 0.66 5 1 C-5.61638018 12.50726523 -24.16660602 16.20646371 -39.1875 16.875 C-51.14639034 17.23760851 -62.62822432 17.16615745 -74 13 C-71 11 -71 11 -68.98535156 11.23339844 C-68.2115918 11.4399707 -67.43783203 11.64654297 -66.640625 11.859375 C-60.3248435 13.28374632 -54.20196891 13.30116657 -47.75 13.25 C-45.96517212 13.24311157 -45.96517212 13.24311157 -44.14428711 13.23608398 C-35.94858101 13.1514535 -28.03682366 12.71769866 -20 11 C-19.24203125 10.85046875 -18.4840625 10.7009375 -17.703125 10.546875 C-17.14109375 10.36640625 -16.5790625 10.1859375 -16 10 C-15.731875 9.401875 -15.46375 8.80375 -15.1875 8.1875 C-13.36689253 4.8337494 -10.50884203 3.22809471 -7 2 C-3.0625 2.25 -3.0625 2.25 0 3 C0 2.01 0 1.02 0 0 Z " fill="#CD334E" transform="translate(299,309)"/>
<path d="M0 0 C0.66 0.33 1.32 0.66 2 1 C2.9375 4.25 2.9375 4.25 3 8 C-0.50275593 13.19374155 -6.15225122 15.29797231 -12 17 C-13.32 17 -14.64 17 -16 17 C-15.47557578 13.2241456 -14.67345333 10.77627845 -12 8 C-11.01 8 -10.02 8 -9 8 C-9 7.34 -9 6.68 -9 6 C-7.824375 5.87625 -7.824375 5.87625 -6.625 5.75 C-3.85955198 5.28474077 -3.85955198 5.28474077 -2.8125 3 C-2.544375 2.34 -2.27625 1.68 -2 1 C-1.34 0.67 -0.68 0.34 0 0 Z " fill="#454545" transform="translate(136,137)"/>
<path d="M0 0 C0 0.33 0 0.66 0 1 C-2.64 1 -5.28 1 -8 1 C-8 0.34 -8 -0.32 -8 -1 C-24.17 -0.67 -40.34 -0.34 -57 0 C-43.75070707 -8.83286195 -14.03604822 -6.01906212 0 0 Z " fill="#DA4C68" transform="translate(280,148)"/>
<path d="M0 0 C0.99 0.33 1.98 0.66 3 1 C2.34 2.65 1.68 4.3 1 6 C3.475 6.99 3.475 6.99 6 8 C6 11 6 11 4.71484375 12.62573242 C4.12832031 13.19654541 3.54179687 13.7673584 2.9375 14.35546875 C2.30585938 14.97744141 1.67421875 15.59941406 1.0234375 16.24023438 C0.35570312 16.88283203 -0.31203125 17.52542969 -1 18.1875 C-1.66773438 18.84169922 -2.33546875 19.49589844 -3.0234375 20.16992188 C-4.67578441 21.78686135 -6.33471601 23.39640491 -8 25 C-8.33 24.01 -8.66 23.02 -9 22 C-8.38125 21.7525 -7.7625 21.505 -7.125 21.25 C-4.5927804 19.76045906 -4.19281342 18.62418952 -3 16 C-2 15 -1 14 0 13 C0.33 12.01 0.66 11.02 1 10 C-0.67828408 9.03375833 -0.67828408 9.03375833 -3 9 C-5.04119788 10.61594832 -7.04072937 12.2856382 -9 14 C-11.1875 14.6640625 -11.1875 14.6640625 -13 15 C-8.70214922 9.96836982 -4.36574458 4.97281557 0 0 Z " fill="#545454" transform="translate(363,320)"/>
<path d="M0 0 C0.99 0 1.98 0 3 0 C3 0.66 3 1.32 3 2 C14.385 2.99 14.385 2.99 26 4 C26 5.32 26 6.64 26 8 C19.64662215 9.69423409 12.35337785 9.69423409 6 8 C6 7.34 6 6.68 6 6 C4.35 5.67 2.7 5.34 1 5 C1 4.34 1 3.68 1 3 C0.01 2.67 -0.98 2.34 -2 2 C-1.34 1.34 -0.68 0.68 0 0 Z " fill="#F12C54" transform="translate(233,225)"/>
<path d="M0 0 C0.8971875 0.309375 0.8971875 0.309375 1.8125 0.625 C1.8125 1.285 1.8125 1.945 1.8125 2.625 C3.1325 2.955 4.4525 3.285 5.8125 3.625 C-2.26494875 10.32887244 -2.26494875 10.32887244 -8.1875 10.625 C-8.1875 11.615 -8.1875 12.605 -8.1875 13.625 C-10.6625 12.635 -10.6625 12.635 -13.1875 11.625 C-12.5625 8.3125 -12.5625 8.3125 -11.1875 4.625 C-8.25 2.8125 -8.25 2.8125 -5.1875 1.625 C-2.1875 -0.375 -2.1875 -0.375 0 0 Z " fill="#4E4E4E" transform="translate(154.1875,121.375)"/>
<path d="M0 0 C4.95 0.33 9.9 0.66 15 1 C13.02 1.99 13.02 1.99 11 3 C11.33 4.65 11.66 6.3 12 8 C10.02 8.99 10.02 8.99 8 10 C8 10.33 8 10.66 8 11 C2.72 10.67 -2.56 10.34 -8 10 C-8 9.67 -8 9.34 -8 9 C-4.535 8.505 -4.535 8.505 -1 8 C-0.30903529 4.01600042 -0.30903529 4.01600042 0 0 Z " fill="#5E5D5D" transform="translate(265,84)"/>
<path d="M0 0 C0.33 0 0.66 0 1 0 C0.99476318 1.12905762 0.98952637 2.25811523 0.98413086 3.42138672 C0.9658883 7.65201001 0.95449831 11.8826299 0.94506836 16.11328125 C0.94007183 17.93652941 0.93327236 19.75977362 0.92456055 21.58300781 C0.91228813 24.219411 0.90672475 26.85576074 0.90234375 29.4921875 C0.89718246 30.29365204 0.89202118 31.09511658 0.88670349 31.92086792 C0.88614724 37.66561269 1.33716508 43.29495059 2 49 C-4.79551505 38.80672742 -4.42350049 21.53735904 -2.3203125 9.8125 C-1.62243133 6.51584227 -0.86685222 3.25585565 0 0 Z " fill="#E2657F" transform="translate(163,210)"/>
<path d="M0 0 C9.28569286 13.92853929 8.42825636 30.97442727 8 47 C7.67 47 7.34 47 7 47 C6.95512451 46.26885986 6.91024902 45.53771973 6.86401367 44.78442383 C6.6521943 41.45941365 6.42006192 38.1361211 6.1875 34.8125 C6.08211914 33.08676758 6.08211914 33.08676758 5.97460938 31.32617188 C5.89404297 30.21435547 5.81347656 29.10253906 5.73046875 27.95703125 C5.66239014 26.93585205 5.59431152 25.91467285 5.52416992 24.86254883 C4.93691122 21.65546533 3.75891004 19.71800904 2 17 C0.16101241 11.19267078 -0.25282917 6.06789997 0 0 Z " fill="#D0516B" transform="translate(335,200)"/>
<path d="M0 0 C0.74330566 0.20318848 1.48661133 0.40637695 2.25244141 0.61572266 C9.66592089 2.29460223 17.16572286 2.24354266 24.72900391 2.40478516 C26.22511813 2.44305558 27.72121245 2.48211223 29.21728516 2.52197266 C32.84600713 2.61696699 36.47488181 2.70134867 40.10400391 2.77978516 C36.3531764 5.28033683 33.15578826 5.27399938 28.79150391 5.46728516 C27.98841797 5.50563477 27.18533203 5.54398437 26.35791016 5.58349609 C15.52969733 6.01748399 5.35732271 5.53618536 -4.89599609 1.77978516 C-1.89599609 -0.22021484 -1.89599609 -0.22021484 0 0 Z " fill="#BE2646" transform="translate(229.89599609375,320.22021484375)"/>
<path d="M0 0 C1.7015625 0.2475 1.7015625 0.2475 3.4375 0.5 C5.71132519 0.85632203 5.71132519 0.85632203 8 1 C8.99 1.33 9.98 1.66 11 2 C11 3.65 11 5.3 11 7 C11.66 7 12.32 7 13 7 C15.67875388 12.35750775 16.3015223 17.1070959 16.3125 23.0625 C16.31765625 23.73474609 16.3228125 24.40699219 16.328125 25.09960938 C16.2642553 29.76665991 15.43296451 33.60976212 14 38 C13.01 37.67 12.02 37.34 11 37 C11.31453125 36.28457031 11.6290625 35.56914062 11.953125 34.83203125 C14.90722012 26.8405426 14.54661523 18.80581546 11.1484375 11.05859375 C9.06593605 7.00364175 7.0031873 5.05291657 3 3 C1.1875 1.3125 1.1875 1.3125 0 0 Z " fill="#E3617A" transform="translate(261,180)"/>
<path d="M0 0 C1.32 0.66 2.64 1.32 4 2 C3.49897679 6.34220113 0.85962472 8.86803007 -2 12 C-2.99 12.66 -3.98 13.32 -5 14 C-5.99 15.485 -5.99 15.485 -7 17 C-7.28875 16.38125 -7.5775 15.7625 -7.875 15.125 C-8.93720042 12.86674235 -8.93720042 12.86674235 -11 11 C-7.37 7.37 -3.74 3.74 0 0 Z M-10 13 C-9.67 13.66 -9.34 14.32 -9 15 C-9.66 15 -10.32 15 -11 15 C-11.33 15.66 -11.66 16.32 -12 17 C-12 16.01 -12 15.02 -12 14 C-11.34 13.67 -10.68 13.34 -10 13 Z " fill="#464646" transform="translate(360,328)"/>
<path d="M0 0 C4.8747919 3.71412716 8.74536187 7.77180471 12 13 C12 13.66 12 14.32 12 15 C12.66 15 13.32 15 14 15 C15.76171875 17.5546875 15.76171875 17.5546875 17.6875 20.875 C18.65236328 22.51082031 18.65236328 22.51082031 19.63671875 24.1796875 C20.31154297 25.57574219 20.31154297 25.57574219 21 27 C20.67 27.66 20.34 28.32 20 29 C17.5 27.75 17.5 27.75 15 26 C15 24.68 15 23.36 15 22 C14.34 22 13.68 22 13 22 C12.67 20.02 12.34 18.04 12 16 C10.68 16 9.36 16 8 16 C7 13 6 10 5 7 C4.01 7.33 3.02 7.66 2 8 C2 6.68 2 5.36 2 4 C1.34 4 0.68 4 0 4 C0 2.68 0 1.36 0 0 Z " fill="#E2506E" transform="translate(314,170)"/>
<path d="M0 0 C0.99 0.33 1.98 0.66 3 1 C3.33 3.31 3.66 5.62 4 8 C4.99 8 5.98 8 7 8 C7 9.98 7 11.96 7 14 C7.66 14 8.32 14 9 14 C9.33 16.97 9.66 19.94 10 23 C10.33 23 10.66 23 11 23 C11 27.62 11 32.24 11 37 C9.02 37.495 9.02 37.495 7 38 C7.33 37.01 7.66 36.02 8 35 C8.898695 24.21565996 5.49547885 13.25048614 0.734375 3.63671875 C0 2 0 2 0 0 Z " fill="#E04365" transform="translate(284,235)"/>
<path d="M0 0 C0.66 0.33 1.32 0.66 2 1 C1.39542969 1.83144531 0.79085937 2.66289062 0.16796875 3.51953125 C-2.15195583 7.00913133 -3.49074006 10.69188926 -4.6875 14.6875 C-4.90027588 15.38794434 -5.11305176 16.08838867 -5.33227539 16.81005859 C-7.59637224 24.58259713 -9.52534823 32.32718325 -6 40 C-7.32 39.34 -8.64 38.68 -10 38 C-10.05451714 35.95863605 -10.09302485 33.91684144 -10.125 31.875 C-10.14820313 30.73804688 -10.17140625 29.60109375 -10.1953125 28.4296875 C-9.99566287 24.92383998 -9.16640143 22.29043206 -8 19 C-7.60341133 15.16182832 -7.7711411 11.6865767 -9 8 C-8.34 7.34 -7.68 6.68 -7 6 C-6.01 6.33 -5.02 6.66 -4 7 C-4 6.34 -4 5.68 -4 5 C-3.34 5 -2.68 5 -2 5 C-2 3.68 -2 2.36 -2 1 C-1.34 0.67 -0.68 0.34 0 0 Z " fill="#E16983" transform="translate(218,234)"/>
<path d="M0 0 C-1 2 -1 2 -2.75 2.81640625 C-3.86375 3.18572266 -3.86375 3.18572266 -5 3.5625 C-5.721875 3.81128906 -6.44375 4.06007813 -7.1875 4.31640625 C-15.59133496 6.35900502 -24.15731007 6.15292857 -32.75 6.125 C-34.55791016 6.13080078 -34.55791016 6.13080078 -36.40234375 6.13671875 C-37.56378906 6.13542969 -38.72523438 6.13414062 -39.921875 6.1328125 C-40.96956055 6.13168457 -42.01724609 6.13055664 -43.09667969 6.12939453 C-45.83869012 6.00718922 -48.33071899 5.61906172 -51 5 C-51 4.67 -51 4.34 -51 4 C-50.02728149 4.01571045 -50.02728149 4.01571045 -49.03491211 4.03173828 C-37.53496652 4.19260516 -26.29991684 4.32662979 -14.92578125 2.4375 C-12.22842772 2.03415742 -9.72123251 1.9192213 -7 2 C-7 1.34 -7 0.68 -7 0 C-3.98968256 -0.93423645 -3.13349732 -1.04449911 0 0 Z " fill="#DF2145" transform="translate(284,317)"/>
<path d="M0 0 C3.08851019 1.51868796 4.71988857 2.46037357 6.328125 5.55859375 C6.63234375 6.50863281 6.9365625 7.45867187 7.25 8.4375 C7.56453125 9.38496094 7.8790625 10.33242188 8.203125 11.30859375 C8.86093971 13.5303307 9.46704351 15.74559406 10 18 C10.66 18 11.32 18 12 18 C11.34 23.61 10.68 29.22 10 35 C9.01 35 8.02 35 7 35 C6.67 35.99 6.34 36.98 6 38 C6.44755431 34.86711984 6.9836039 32.0453304 8.0625 29.0625 C9.17199747 25.4381416 9.40439431 22.77434692 9 19 C7.74282547 16.95127113 6.39355764 14.95851344 5 13 C0 3.02832861 0 3.02832861 0 0 Z " fill="#E45975" transform="translate(165,262)"/>
<path d="M0 0 C7.80429806 -0.52514903 13.08865368 0.4147391 20 4 C20.99 4.33 21.98 4.66 23 5 C23.6875 7.0625 23.6875 7.0625 24 9 C18.63590483 7.39077145 18.63590483 7.39077145 16.27734375 5.94140625 C9.94248737 2.05441369 4.15657678 2.99633374 -3 4 C-3.33 3.34 -3.66 2.68 -4 2 C-2.68 2 -1.36 2 0 2 C0 1.34 0 0.68 0 0 Z " fill="#CD4F68" transform="translate(197,311)"/>
<path d="M0 0 C4.69014085 2.66197183 4.69014085 2.66197183 6.375 4.5 C8.89503562 6.82618672 11.82370286 7.74146717 15 9 C15 9.33 15 9.66 15 10 C12.03 9.67 9.06 9.34 6 9 C6 8.34 6 7.68 6 7 C4.02 7.99 4.02 7.99 2 9 C2.66 9.66 3.32 10.32 4 11 C2.35 10.67 0.7 10.34 -1 10 C-1.33 9.01 -1.66 8.02 -2 7 C-2.66 6.67 -3.32 6.34 -4 6 C-3.34 5.38125 -2.68 4.7625 -2 4.125 C0.2284549 2.24362573 0.2284549 2.24362573 0 0 Z " fill="#EF3E5E" transform="translate(230,218)"/>
<path d="M0 0 C-0.07596166 3.19038983 -0.38788755 5.31714088 -2.5546875 7.734375 C-7.45 12 -7.45 12 -10 12 C-10 12.66 -10 13.32 -10 14 C-13.46153846 17 -13.46153846 17 -16 17 C-16 15.35 -16 13.7 -16 12 C-14.35 11.67 -12.7 11.34 -11 11 C-11 10.01 -11 9.02 -11 8 C-9.68 8 -8.36 8 -7 8 C-7 7.34 -7 6.68 -7 6 C-6.34 5.67 -5.68 5.34 -5 5 C-4.835 4.34 -4.67 3.68 -4.5 3 C-4.335 2.34 -4.17 1.68 -4 1 C-2 0 -2 0 0 0 Z " fill="#C83F59" transform="translate(320,293)"/>
<path d="M0 0 C0.66 0.33 1.32 0.66 2 1 C3 4.25 3 4.25 3 8 C1.21091856 10.20489242 -0.60648264 11.38803933 -3 13 C-3 11.68 -3 10.36 -3 9 C-3.99 9 -4.98 9 -6 9 C-6 7.68 -6 6.36 -6 5 C-5.34 5 -4.68 5 -4 5 C-3.71125 4.360625 -3.4225 3.72125 -3.125 3.0625 C-2 1 -2 1 0 0 Z " fill="#525252" transform="translate(136,137)"/>
<path d="M0 0 C0.33 0 0.66 0 1 0 C1.22084624 6.09781001 1.01167675 11.21642935 -1 17 C0.65 17 2.3 17 4 17 C4.33 17.99 4.66 18.98 5 20 C1.7 20 -1.6 20 -5 20 C-3.56390017 13.26137773 -1.85991713 6.63370443 0 0 Z " fill="#DF5977" transform="translate(170,300)"/>
<path d="M0 0 C0 0.33 0 0.66 0 1 C-13.2 1.33 -26.4 1.66 -40 2 C-29.95640426 -4.6957305 -11.61657832 -0.70024584 0 0 Z " fill="#EC2F55" transform="translate(263,146)"/>
<path d="M0 0 C0 0.33 0 0.66 0 1 C-2.97 1 -5.94 1 -9 1 C-9 1.66 -9 2.32 -9 3 C-15.41894642 5.83914938 -19.86336065 7.13724306 -27 7 C-26.67 6.34 -26.34 5.68 -26 5 C-24.3520383 4.49552193 -22.69997303 4.00117132 -21.03125 3.5703125 C-18.93530398 2.98183535 -16.96075761 2.23902128 -14.9375 1.4375 C-9.74519814 -0.5371785 -5.46914162 -1.44771396 0 0 Z " fill="#D0294A" transform="translate(206,310)"/>
<path d="M0 0 C1.485 0.99 1.485 0.99 3 2 C3.38818359 4.29077148 3.38818359 4.29077148 3.3984375 7.12109375 C3.40230469 8.13880859 3.40617187 9.15652344 3.41015625 10.20507812 C3.39855469 11.27177734 3.38695312 12.33847656 3.375 13.4375 C3.38660156 14.50033203 3.39820313 15.56316406 3.41015625 16.65820312 C3.40628906 17.67720703 3.40242188 18.69621094 3.3984375 19.74609375 C3.39336182 21.14879517 3.39336182 21.14879517 3.38818359 22.57983398 C3 25 3 25 0 28 C0 18.76 0 9.52 0 0 Z " fill="#D62046" transform="translate(338,220)"/>
<path d="M0 0 C0.66 0.33 1.32 0.66 2 1 C1.01 2.485 1.01 2.485 0 4 C-0.66 4 -1.32 4 -2 4 C-2 4.99 -2 5.98 -2 7 C-2.66 7 -3.32 7 -4 7 C-4 7.66 -4 8.32 -4 9 C-7.2491277 11.3208055 -10.05879291 12.43697042 -14 13 C-13.25 11.0625 -13.25 11.0625 -12 9 C-10.67405895 8.63837971 -9.34061543 8.30271961 -8 8 C-7.67 7.01 -7.34 6.02 -7 5 C-5.37109375 3.61328125 -5.37109375 3.61328125 -3.4375 2.3125 C-2.79683594 1.87550781 -2.15617188 1.43851562 -1.49609375 0.98828125 C-1.00238281 0.66214844 -0.50867188 0.33601563 0 0 Z " fill="#646464" transform="translate(158,112)"/>
<path d="M0 0 C0.33 0.66 0.66 1.32 1 2 C0.525625 3.010625 0.05125 4.02125 -0.4375 5.0625 C-3.56489087 12.02346676 -2.21796903 18.40966722 0.34375 25.34765625 C0.5603125 25.89292969 0.776875 26.43820313 1 27 C0.01 27 -0.98 27 -2 27 C-4.35397751 22.33912452 -4.3667617 18.04112646 -4.375 12.9375 C-4.39949219 12.13505859 -4.42398438 11.33261719 -4.44921875 10.50585938 C-4.47859973 4.6051792 -4.47859973 4.6051792 -1.9765625 1.44140625 C-1.32429687 0.96574219 -0.67203125 0.49007812 0 0 Z " fill="#E05C79" transform="translate(229,190)"/>
<path d="M0 0 C0.99 0.33 1.98 0.66 3 1 C-1.69766975 6.66129431 -6.74723372 11.85228904 -12 17 C-12.33 16.01 -12.66 15.02 -13 14 C-12.38125 13.7525 -11.7625 13.505 -11.125 13.25 C-8.8926498 12.19627726 -8.8926498 12.19627726 -8.09375 10.1875 C-6.82962919 7.65925838 -5.26315732 5.84795258 -3.375 3.75 C-2.74335938 3.04359375 -2.11171875 2.3371875 -1.4609375 1.609375 C-0.97882813 1.07828125 -0.49671875 0.5471875 0 0 Z " fill="#6E6E6E" transform="translate(367,328)"/>
<path d="M0 0 C1.65 0.99 3.3 1.98 5 3 C2.57418129 5.42581871 0.92566131 5.96355664 -2.48046875 6.09765625 C-3.37378906 6.08605469 -4.26710938 6.07445312 -5.1875 6.0625 C-6.08855469 6.05347656 -6.98960937 6.04445313 -7.91796875 6.03515625 C-8.60503906 6.02355469 -9.29210937 6.01195312 -10 6 C-10 5.34 -10 4.68 -10 4 C-10.66 3.67 -11.32 3.34 -12 3 C-8.7 3.33 -5.4 3.66 -2 4 C-1.34 2.68 -0.68 1.36 0 0 Z " fill="#606060" transform="translate(390,264)"/>
<path d="M0 0 C2.5 2.25 2.5 2.25 5 5 C5 6.32 5 7.64 5 9 C1.625 8.6875 1.625 8.6875 -2 8 C-2.66 7.01 -3.32 6.02 -4 5 C-3.01 4.34 -2.02 3.68 -1 3 C-0.67 2.01 -0.34 1.02 0 0 Z " fill="#6B6B6B" transform="translate(375,145)"/>
<path d="M0 0 C0.66 0.33 1.32 0.66 2 1 C1.360625 1.9075 0.72125 2.815 0.0625 3.75 C-1.61428953 6.39221381 -2.53689998 7.9898499 -3 11 C-3.66 11 -4.32 11 -5 11 C-5 11.66 -5 12.32 -5 13 C-5.66 13 -6.32 13 -7 13 C-7.66 11.35 -8.32 9.7 -9 8 C-8.34 7.34 -7.68 6.68 -7 6 C-6.01 6.33 -5.02 6.66 -4 7 C-4 6.34 -4 5.68 -4 5 C-3.34 5 -2.68 5 -2 5 C-2 3.68 -2 2.36 -2 1 C-1.34 0.67 -0.68 0.34 0 0 Z " fill="#E75170" transform="translate(218,234)"/>
<path d="M0 0 C0.79921875 0.01804688 1.5984375 0.03609375 2.421875 0.0546875 C3.02515625 0.07789063 3.6284375 0.10109375 4.25 0.125 C4.25 0.455 4.25 0.785 4.25 1.125 C1.61 1.125 -1.03 1.125 -3.75 1.125 C-4.41 2.445 -5.07 3.765 -5.75 5.125 C-6.08 4.795 -6.41 4.465 -6.75 4.125 C-8.4 5.775 -10.05 7.425 -11.75 9.125 C-12.74 8.465 -13.73 7.805 -14.75 7.125 C-6.28592814 -0.18488024 -6.28592814 -0.18488024 0 0 Z " fill="#737373" transform="translate(114.75,181.875)"/>
<path d="M0 0 C1 3 1 3 -0.109375 5.59375 C-0.65078125 6.5528125 -1.1921875 7.511875 -1.75 8.5 C-2.28109375 9.4590625 -2.8121875 10.418125 -3.359375 11.40625 C-4.76099554 13.62214532 -6.05639412 15.26714656 -8 17 C-8.33 15.68 -8.66 14.36 -9 13 C-8.01 13 -7.02 13 -6 13 C-5.67 10.69 -5.34 8.38 -5 6 C-4.34 6 -3.68 6 -3 6 C-2.690625 5.195625 -2.38125 4.39125 -2.0625 3.5625 C-1 1 -1 1 0 0 Z " fill="#C74F66" transform="translate(334,272)"/>
<path d="M0 0 C1.65 0.33 3.3 0.66 5 1 C5.33 3.31 5.66 5.62 6 8 C4.02 8.99 4.02 8.99 2 10 C2 9.34 2 8.68 2 8 C1.34 7.67 0.68 7.34 0 7 C-0.33 6.34 -0.66 5.68 -1 5 C-0.34 4.01 0.32 3.02 1 2 C0.67 1.34 0.34 0.68 0 0 Z " fill="#414141" transform="translate(307,95)"/>
<path d="M0 0 C0.33 0 0.66 0 1 0 C1.05404449 2.75026417 1.09369306 5.49946203 1.125 8.25 C1.15013672 9.41595703 1.15013672 9.41595703 1.17578125 10.60546875 C1.23662606 17.72431144 1.23662606 17.72431144 -1 21 C-2.1898306 18.6203388 -2.13349966 17.08514265 -2.125 14.4375 C-2.12886719 13.22900391 -2.12886719 13.22900391 -2.1328125 11.99609375 C-2 10 -2 10 -1 9 C-0.76807135 7.48530552 -0.58784762 5.96245438 -0.4375 4.4375 C-0.35371094 3.61121094 -0.26992188 2.78492188 -0.18359375 1.93359375 C-0.12300781 1.29550781 -0.06242187 0.65742188 0 0 Z " fill="#C03451" transform="translate(341,236)"/>
<path d="M0 0 C1.74596035 3.4919207 0.98912541 7.31206883 0 11 C-2.5625 13.5625 -2.5625 13.5625 -5 15 C-5.33 14.01 -5.66 13.02 -6 12 C-5.05576669 10.24177245 -4.1023336 8.4861994 -3.05859375 6.78515625 C-1.77058558 4.6131277 -0.86171247 2.36970929 0 0 Z " fill="#E85A78" transform="translate(171,190)"/>
<path d="M0 0 C2.0625 0.4375 2.0625 0.4375 4 1 C1.23719462 2.84187025 -0.80707826 3.72248277 -3.9375 4.6875 C-4.79214844 4.95949219 -5.64679688 5.23148437 -6.52734375 5.51171875 C-9.15177342 6.02997105 -10.52720387 5.96668704 -13 5 C-13.66 4.34 -14.32 3.68 -15 3 C-14.00097656 2.86722656 -13.00195312 2.73445313 -11.97265625 2.59765625 C-10.68230469 2.42105469 -9.39195312 2.24445313 -8.0625 2.0625 C-6.77472656 1.88847656 -5.48695313 1.71445312 -4.16015625 1.53515625 C-1.14533687 1.33837577 -1.14533687 1.33837577 0 0 Z " fill="#CE4B65" transform="translate(280,319)"/>
<path d="M0 0 C2.0625 0.4375 2.0625 0.4375 4 1 C2.7260411 3.03833424 1.38938077 5.03852126 0 7 C-0.66 7 -1.32 7 -2 7 C-2.33 7.99 -2.66 8.98 -3 10 C-3 9.34 -3 8.68 -3 8 C-3.66 8 -4.32 8 -5 8 C-5 8.66 -5 9.32 -5 10 C-5.66 9.67 -6.32 9.34 -7 9 C-5.625 7 -5.625 7 -4 5 C-3.34 5 -2.68 5 -2 5 C-1.855625 4.360625 -1.71125 3.72125 -1.5625 3.0625 C-1 1 -1 1 0 0 Z " fill="#717171" transform="translate(132,135)"/>
<path d="M0 0 C0.99 0.33 1.98 0.66 3 1 C3.33 2.65 3.66 4.3 4 6 C4.66 6 5.32 6 6 6 C5.67 7.32 5.34 8.64 5 10 C3.02 9.01 1.04 8.02 -1 7 C-0.67 4.69 -0.34 2.38 0 0 Z " fill="#4A4A4A" transform="translate(365,319)"/>
<path d="M0 0 C-0.25293263 3.41459045 -1.25948589 4.24795319 -3.8125 6.6875 C-6.59931559 8.70930739 -7.80677696 9.36966747 -11 10 C-10.06409496 8.8944811 -9.12620142 7.79064547 -8.1875 6.6875 C-7.66542969 6.07261719 -7.14335937 5.45773437 -6.60546875 4.82421875 C-2.35974304 0 -2.35974304 0 0 0 Z " fill="#707070" transform="translate(361,325)"/>
<path d="M0 0 C1.07894531 0.30164063 2.15789062 0.60328125 3.26953125 0.9140625 C4.35621094 1.21054687 5.44289062 1.50703125 6.5625 1.8125 C7.39394531 2.05226563 8.22539062 2.29203125 9.08203125 2.5390625 C9.08203125 3.1990625 9.08203125 3.8590625 9.08203125 4.5390625 C3.80887792 4.093774 -0.93567099 3.45533087 -5.91796875 1.5390625 C-2.91796875 -0.4609375 -2.91796875 -0.4609375 0 0 Z " fill="#CF5C74" transform="translate(230.91796875,320.4609375)"/>
<path d="M0 0 C4.92127034 -0.16682272 8.50343896 -0.24828052 13 2 C13 2.66 13 3.32 13 4 C14.65 4 16.3 4 18 4 C18 4.66 18 5.32 18 6 C12.67322877 5.54857871 9.53204163 4.93970268 5 2 C2.30745009 1.29329272 2.30745009 1.29329272 0 1 C0 0.67 0 0.34 0 0 Z " fill="#DF5F7C" transform="translate(226,229)"/>
<path d="M0 0 C1 3 1 3 0.00390625 5.48046875 C-0.47175781 6.37378906 -0.94742188 7.26710937 -1.4375 8.1875 C-1.91058594 9.08855469 -2.38367188 9.98960937 -2.87109375 10.91796875 C-3.24363281 11.60503906 -3.61617187 12.29210937 -4 13 C-4.99 12.67 -5.98 12.34 -7 12 C-5.66749209 8.4124787 -4.169283 5.1635377 -2 2 C-1.34 2 -0.68 2 0 2 C0 1.34 0 0.68 0 0 Z " fill="#E5567A" transform="translate(179,178)"/>
<path d="M0 0 C1.7015625 0.2475 1.7015625 0.2475 3.4375 0.5 C5.71132519 0.85632203 5.71132519 0.85632203 8 1 C8.99 1.33 9.98 1.66 11 2 C11 3.65 11 5.3 11 7 C6.00724943 5.72278474 3.42388092 3.82669043 0 0 Z " fill="#E84C6D" transform="translate(261,180)"/>
<path d="M0 0 C-0.95117134 1.1725131 -1.91117009 2.33787015 -2.875 3.5 C-3.40867188 4.1496875 -3.94234375 4.799375 -4.4921875 5.46875 C-4.98976562 5.9740625 -5.48734375 6.479375 -6 7 C-6.66 7 -7.32 7 -8 7 C-8.3125 4.6875 -8.3125 4.6875 -8 2 C-3.92125984 -1.30708661 -3.92125984 -1.30708661 0 0 Z " fill="#EA3C61" transform="translate(235,184)"/>
<path d="M0 0 C3.39417765 3.12621626 5.6062718 5.56541027 7 10 C4.625 9.375 4.625 9.375 2 8 C0.78849991 5.23085693 0 3.03028259 0 0 Z " fill="#D64E6B" transform="translate(328,189)"/>
<path d="M0 0 C0.66 0.99 1.32 1.98 2 3 C1 6 1 6 0 7 C0 7.66 0 8.32 0 9 C-1.32 9 -2.64 9 -4 9 C-3.46930939 5.17902761 -2.50298434 2.93828597 0 0 Z " fill="#787878" transform="translate(124,145)"/>
<path d="M0 0 C1.134375 0.020625 2.26875 0.04125 3.4375 0.0625 C2.1175 1.0525 0.7975 2.0425 -0.5625 3.0625 C0.7575 3.7225 2.0775 4.3825 3.4375 5.0625 C1.1275 5.0625 -1.1825 5.0625 -3.5625 5.0625 C-4.125 3.125 -4.125 3.125 -4.5625 1.0625 C-3.5625 0.0625 -3.5625 0.0625 0 0 Z " fill="#E0DFDF" transform="translate(176.5625,434.9375)"/>
<path d="M0 0 C0.66 0.33 1.32 0.66 2 1 C1.01 2.485 1.01 2.485 0 4 C-2.7885289 4.22107787 -5.34653181 4.28107535 -8.125 4.1875 C-8.87910156 4.17396484 -9.63320312 4.16042969 -10.41015625 4.14648438 C-12.27374127 4.11109985 -14.13695978 4.05729167 -16 4 C-16 3.67 -16 3.34 -16 3 C-15.18015625 2.95101562 -14.3603125 2.90203125 -13.515625 2.8515625 C-12.43796875 2.77679688 -11.3603125 2.70203125 -10.25 2.625 C-9.18265625 2.55539063 -8.1153125 2.48578125 -7.015625 2.4140625 C-4.17078403 2.02344962 -2.50146309 1.29580295 0 0 Z " fill="#E87990" transform="translate(261,225)"/>
<path d="M0 0 C3 3 3 3 3.2487793 4.99291992 C3.19117432 5.73131104 3.13356934 6.46970215 3.07421875 7.23046875 C3.01943359 8.03291016 2.96464844 8.83535156 2.90820312 9.66210938 C2.83537109 10.49548828 2.76253906 11.32886719 2.6875 12.1875 C2.62626953 13.03248047 2.56503906 13.87746094 2.50195312 14.74804688 C2.34881209 16.83312095 2.17625843 18.91675276 2 21 C1.67 21 1.34 21 1 21 C0.67 14.07 0.34 7.14 0 0 Z " fill="#E22348" transform="translate(338,220)"/>
<path d="M0 0 C-3.00440021 2.00293347 -4.70993945 2.49271626 -8.1875 3.125 C-9.53908203 3.37636719 -9.53908203 3.37636719 -10.91796875 3.6328125 C-11.60503906 3.75398438 -12.29210937 3.87515625 -13 4 C-12.67 3.01 -12.34 2.02 -12 1 C-8.32433144 -0.61729417 -3.92760325 -0.06546005 0 0 Z " fill="#767676" transform="translate(218,96)"/>
<path d="M0 0 C0.99 0.33 1.98 0.66 3 1 C1.02 1.99 1.02 1.99 -1 3 C-0.67 5.64 -0.34 8.28 0 11 C-0.66 11 -1.32 11 -2 11 C-3.35384615 4.6 -3.35384615 4.6 -1.5625 1.5625 C-1.046875 1.046875 -0.53125 0.53125 0 0 Z " fill="#444444" transform="translate(257,371)"/>
<path d="M0 0 C0.33 0 0.66 0 1 0 C1.33 1.98 1.66 3.96 2 6 C0.02 7.32 -1.96 8.64 -4 10 C-4 9.01 -4 8.02 -4 7 C-3.34 7 -2.68 7 -2 7 C-2.33 5.68 -2.66 4.36 -3 3 C-2.34 3 -1.68 3 -1 3 C-0.67 2.01 -0.34 1.02 0 0 Z " fill="#5A5A5A" transform="translate(352,340)"/>
<path d="M0 0 C-0.33 0.66 -0.66 1.32 -1 2 C-4.3 2 -7.6 2 -11 2 C-11 1.34 -11 0.68 -11 0 C-3.375 -1.125 -3.375 -1.125 0 0 Z " fill="#676567" transform="translate(121,268)"/>
<path d="M0 0 C1.32 0.66 2.64 1.32 4 2 C2.73581754 2.69965443 1.46334598 3.38434763 0.1875 4.0625 C-0.52019531 4.44535156 -1.22789062 4.82820312 -1.95703125 5.22265625 C-4 6 -4 6 -7 5 C-7 4.34 -7 3.68 -7 3 C-4.69 3 -2.38 3 0 3 C0 2.01 0 1.02 0 0 Z " fill="#E7748B" transform="translate(267,229)"/>
<path d="M0 0 C1.33804687 0.04060547 1.33804687 0.04060547 2.703125 0.08203125 C3.37859375 0.11683594 4.0540625 0.15164062 4.75 0.1875 C4.75 0.5175 4.75 0.8475 4.75 1.1875 C3.615625 1.31125 2.48125 1.435 1.3125 1.5625 C-0.4509375 1.871875 -0.4509375 1.871875 -2.25 2.1875 C-2.58 2.8475 -2.91 3.5075 -3.25 4.1875 C-6.22 3.6925 -6.22 3.6925 -9.25 3.1875 C-6.10408067 0.38704377 -4.182936 -0.16511589 0 0 Z " fill="#7F7F7F" transform="translate(385.25,181.8125)"/>
<path d="M0 0 C0.66 0.33 1.32 0.66 2 1 C-0.51830747 4.12270126 -1.7261549 4.94523098 -5.75 5.75 C-7.35875 5.87375 -7.35875 5.87375 -9 6 C-3.30379747 1.25316456 -3.30379747 1.25316456 0 0 Z " fill="#E36B84" transform="translate(214,150)"/>
<path d="M0 0 C-2.26562673 2.26562673 -3.84160705 2.94462749 -7.04296875 3.09765625 C-7.75066406 3.08605469 -8.45835937 3.07445312 -9.1875 3.0625 C-11.0746875 3.0315625 -11.0746875 3.0315625 -13 3 C-8.48332093 -0.01111938 -5.3360009 -0.10067926 0 0 Z " fill="#DF6B85" transform="translate(236,145)"/>
<path d="M0 0 C0.33 0 0.66 0 1 0 C3.43326039 7.87746171 3.43326039 7.87746171 1.625 12.5625 C1.08875 13.366875 0.5525 14.17125 0 15 C-1.47193312 12.05613377 -0.84936173 9.62609964 -0.5625 6.375 C-0.46066406 5.18648437 -0.35882813 3.99796875 -0.25390625 2.7734375 C-0.17011719 1.85820312 -0.08632813 0.94296875 0 0 Z " fill="#EB2B51" transform="translate(277,198)"/>
<path d="M0 0 C0.66 0.33 1.32 0.66 2 1 C1.01 2.485 1.01 2.485 0 4 C0.66 4.33 1.32 4.66 2 5 C1.01 5.33 0.02 5.66 -1 6 C-1.33 6.66 -1.66 7.32 -2 8 C-2.66 7.67 -3.32 7.34 -4 7 C-2.92598892 4.08482708 -2.22189824 2.22189824 0 0 Z " fill="#6E6E6E" transform="translate(374,185)"/>
<path d="M0 0 C0.66 0 1.32 0 2 0 C2 2.31 2 4.62 2 7 C1.01 7 0.02 7 -1 7 C-1.33 7.99 -1.66 8.98 -2 10 C-1.46274105 6.62294375 -0.88935377 3.303314 0 0 Z " fill="#E76A85" transform="translate(173,290)"/>
<path d="M0 0 C0.99 0.33 1.98 0.66 3 1 C3.66 4.3 4.32 7.6 5 11 C2.09591658 7.12788877 1.14920536 4.59682146 0 0 Z " fill="#E56180" transform="translate(284,235)"/>
<path d="M0 0 C0 0.66 0 1.32 0 2 C-3.3 2 -6.6 2 -10 2 C-10 1.34 -10 0.68 -10 0 C-2.25 -1.125 -2.25 -1.125 0 0 Z " fill="#FD2850" transform="translate(259,231)"/>
<path d="M0 0 C4.95 1.98 4.95 1.98 10 4 C10 4.33 10 4.66 10 5 C7.03 4.67 4.06 4.34 1 4 C0.67 2.68 0.34 1.36 0 0 Z " fill="#E36680" transform="translate(235,223)"/>
<path d="M0 0 C1 4 1 4 0 7 C-1.98 7 -3.96 7 -6 7 C-4.02 4.69 -2.04 2.38 0 0 Z " fill="#EB6685" transform="translate(271,217)"/>
<path d="M0 0 C5 2 5 2 10 4 C10 4.33 10 4.66 10 5 C8.02 5 6.04 5 4 5 C4 4.34 4 3.68 4 3 C2.68 3 1.36 3 0 3 C0 2.01 0 1.02 0 0 Z " fill="#E2607A" transform="translate(288,152)"/>
<path d="M0 0 C-0.33 0.66 -0.66 1.32 -1 2 C-3.9375 2.75 -3.9375 2.75 -7 3 C-7.66 2.34 -8.32 1.68 -9 1 C-5.57367167 -0.61798838 -3.61944899 -1.34053666 0 0 Z " fill="#595959" transform="translate(131,150)"/>
<path d="M0 0 C0.33 0.99 0.66 1.98 1 3 C-1.31 4.98 -3.62 6.96 -6 9 C-5.67 7.68 -5.34 6.36 -5 5 C-4.01 4.67 -3.02 4.34 -2 4 C-0.79117904 1.99983534 -0.79117904 1.99983534 0 0 Z " fill="#676767" transform="translate(360,336)"/>
<path d="M0 0 C1.65 0.33 3.3 0.66 5 1 C2.63707344 3.52588702 1.33537489 4.88820837 -2 6 C-2 5.01 -2 4.02 -2 3 C-1.34 3 -0.68 3 0 3 C0 2.01 0 1.02 0 0 Z " fill="#CA4F66" transform="translate(299,309)"/>
<path d="M0 0 C0.99 0.99 1.98 1.98 3 3 C1.35 4.65 -0.3 6.3 -2 8 C-2.33 6.02 -2.66 4.04 -3 2 C-2.01 2 -1.02 2 0 2 C0 1.34 0 0.68 0 0 Z " fill="#D04C64" transform="translate(323,287)"/>
<path d="M0 0 C0.33 0.66 0.66 1.32 1 2 C1.66 2 2.32 2 3 2 C4.0625 4.375 4.0625 4.375 5 7 C4.67 7.66 4.34 8.32 4 9 C3.34 9 2.68 9 2 9 C1.67 7.02 1.34 5.04 1 3 C0.34 3 -0.32 3 -1 3 C-0.67 2.01 -0.34 1.02 0 0 Z " fill="#E05B79" transform="translate(325,183)"/>
<path d="M0 0 C1.2077558 3.62326739 0.54311128 4.64146369 -1 8 C-1.66 7.67 -2.32 7.34 -3 7 C-3 3 -3 3 -1.5 1.25 C-1.005 0.8375 -0.51 0.425 0 0 Z " fill="#ED5271" transform="translate(184,172)"/>
<path d="M0 0 C1.65 0.99 3.3 1.98 5 3 C4.34 3.66 3.68 4.32 3 5 C0.375 4.625 0.375 4.625 -2 4 C-1.34 2.68 -0.68 1.36 0 0 Z " fill="#686868" transform="translate(390,264)"/>
<path d="M0 0 C0.99 0 1.98 0 3 0 C2.39009109 3.55780196 1.4216319 6.6828589 0 10 C-1.231394 6.30581799 -0.64432764 3.7943739 0 0 Z " fill="#CE6577" transform="translate(337,260)"/>
<path d="M0 0 C1.07310858 3.27185553 0.89263102 5.42947592 0.0625 8.75 C-0.13214844 9.54921875 -0.32679688 10.3484375 -0.52734375 11.171875 C-0.68332031 11.77515625 -0.83929688 12.3784375 -1 13 C-1.33 13 -1.66 13 -2 13 C-2.05416188 11.39620659 -2.09286638 9.79188594 -2.125 8.1875 C-2.14820313 7.29417969 -2.17140625 6.40085938 -2.1953125 5.48046875 C-2 3 -2 3 0 0 Z " fill="#DD3A5A" transform="translate(166,204)"/>
<path d="M0 0 C1.65 0 3.3 0 5 0 C4.42655063 2.86724686 4.1385485 3.8614515 2 6 C2 5.34 2 4.68 2 4 C1.01 3.67 0.02 3.34 -1 3 C-0.67 2.01 -0.34 1.02 0 0 Z " fill="#787878" transform="translate(375,314)"/>
<path d="M0 0 C0.33 0 0.66 0 1 0 C1.33 3.3 1.66 6.6 2 10 C0.68 10.33 -0.64 10.66 -2 11 C-1.34 7.37 -0.68 3.74 0 0 Z " fill="#E3637C" transform="translate(293,262)"/>
<path d="M0 0 C0.66 0 1.32 0 2 0 C2.33 3.3 2.66 6.6 3 10 C-0.16130459 5.78492722 -0.3367697 4.93928888 0 0 Z " fill="#C64D67" transform="translate(339,215)"/>
<path d="M0 0 C6.75 0.75 6.75 0.75 9 3 C6.36 3 3.72 3 1 3 C0.67 2.01 0.34 1.02 0 0 Z " fill="#E96882" transform="translate(271,146)"/>
<path d="M0 0 C1.65 0 3.3 0 5 0 C5.33 1.32 5.66 2.64 6 4 C4.02 3.34 2.04 2.68 0 2 C0 1.34 0 0.68 0 0 Z " fill="#D1536E" transform="translate(215,316)"/>
<path d="M0 0 C2.31 1.65 4.62 3.3 7 5 C6.67 5.66 6.34 6.32 6 7 C3.00675737 5.9024777 2.15389099 5.32317108 0.75 2.375 C0.5025 1.59125 0.255 0.8075 0 0 Z " fill="#E87C93" transform="translate(303,160)"/>
<path d="M0 0 C-0.8125 2.4375 -0.8125 2.4375 -2 5 C-2.99 5.33 -3.98 5.66 -5 6 C-5 4.68 -5 3.36 -5 2 C-2 0 -2 0 0 0 Z " fill="#6C6C6C" transform="translate(151,130)"/>
</svg>
